# xmcd
#
# Track frame offsets: 
#        183
#        20120
#        39175
#        80568
#
# Disc length: 1340 seconds
#
# Revision: 3
# Processed by: cddbd v1.5.2PL0 Copyright (c) Steve Scherf et al.
# Submitted via: ExactAudioCopy v0.99pb4
#
DISCID=27053a04
DTITLE=Sounds Of Blackness - I'm Going All The Way
DYEAR=1994
DGENRE=Soul
TTITLE0=I'm Going All The Way (LP Version Edit)
TTITLE1=I'm Going All The Way (Nuttin But Sol For Ya Edit)
TTITLE2=The Harder They Are The Bigger They Fall (E-Smoove Harder Anth
TTITLE2=em)
TTITLE3=Everything Is Gonna Be Alright (Brian Morgan Radio Edit)
EXTD=YEAR: 1994
EXTT0=
EXTT1=
EXTT2=
EXTT3=
PLAYORDER=
